<?xml version="1.0" encoding="utf-8"?>
<!-- Generator: Adobe Illustrator 24.3.0, SVG Export Plug-In . SVG Version: 6.00 Build 0)  -->
<svg version="1.0" id="katman_1" xmlns="http://www.w3.org/2000/svg" xmlns:xlink="http://www.w3.org/1999/xlink" x="0px" y="0px"
	 viewBox="0 0 459.42 345.94" style="enable-background:new 0 0 459.42 345.94;" xml:space="preserve">
<style type="text/css">
	.st0{fill-rule:evenodd;clip-rule:evenodd;fill:#200100;}
</style>
<path class="st0" d="M337.65,143.19l-107.98,0c-16.43,0-29.76,13.33-29.76,29.76c0,5.62,1.56,10.88,4.27,15.37h-85.41
	c-0.69-5.03-1.05-10.16-1.05-15.37c0-61.82,50.13-111.92,111.92-111.92v0h180.63l-72.73,82.19L337.65,143.19z"/>
<path class="st0" d="M121.76,202.73l107.98,0c16.43,0,29.76-13.33,29.76-29.76c0-5.62-1.56-10.88-4.27-15.37h85.41
	c0.69,5.03,1.05,10.16,1.05,15.37c0,61.82-50.13,111.92-111.92,111.92v0H49.14l72.73-82.19L121.76,202.73z"/>
</svg>
